<?xml version="1.0" standalone="no"?>
<!DOCTYPE svg PUBLIC "-//W3C//DTD SVG 20010904//EN"
 "http://www.w3.org/TR/2001/REC-SVG-20010904/DTD/svg10.dtd">
<svg version="1.0" xmlns="http://www.w3.org/2000/svg"
 width="300.000000pt" height="300.000000pt" viewBox="0 0 300.000000 300.000000"
 preserveAspectRatio="xMidYMid meet">
<metadata>
Created by potrace 1.14, written by Peter Selinger 2001-2017
</metadata>
<g transform="translate(0.000000,300.000000) scale(0.100000,-0.100000)"
fill="#000000" stroke="none">
<path d="M380 2906 c-25 -7 -61 -20 -81 -29 -39 -17 -137 -102 -129 -110 3 -3
37 -2 75 3 39 5 106 11 150 15 44 4 87 8 95 10 13 3 118 14 190 20 38 3 161
16 195 20 17 2 57 7 90 10 33 3 74 7 90 10 17 2 64 7 105 10 41 4 89 9 105 11
17 2 55 6 85 9 30 3 73 7 95 10 22 3 69 8 105 11 36 3 67 8 69 10 2 2 -265 4
-595 3 -458 0 -610 -3 -644 -13z"/>
<path d="M2475 2900 c2 -12 6 -29 9 -38 3 -9 8 -35 12 -57 3 -22 18 -100 34
-172 l28 -133 -88 -127 c-48 -71 -141 -207 -208 -303 -66 -96 -144 -210 -174
-253 -29 -43 -96 -139 -149 -215 -52 -75 -196 -283 -318 -462 -123 -179 -229
-331 -234 -338 -9 -11 -3 -12 29 -8 21 3 68 8 104 11 36 3 81 8 100 10 41 5
134 14 205 20 45 4 94 8 220 20 22 3 65 7 95 10 30 3 78 8 105 10 28 2 73 6
100 9 28 3 79 8 115 11 36 3 81 8 100 10 19 2 58 7 87 10 43 5 53 3 61 -12 6
-10 10 -21 11 -26 2 -15 14 -65 37 -148 14 -47 26 -95 28 -105 6 -30 64 -174
91 -224 21 -40 24 -43 32 -25 4 11 8 519 8 1130 l0 1110 -31 65 c-70 149 -195
233 -356 239 -54 2 -57 1 -53 -19z"/>
<path d="M93 2624 c-4 -16 -8 -526 -8 -1134 l0 -1105 32 -67 c38 -81 96 -145
163 -182 27 -15 50 -26 50 -24 0 2 -27 73 -59 158 l-58 155 135 200 c154 228
350 516 465 685 43 63 139 205 213 315 74 110 187 275 250 367 108 159 124
185 107 175 -5 -3 -40 -8 -80 -12 -40 -4 -85 -8 -100 -10 -15 -2 -57 -6 -93
-10 -36 -3 -76 -8 -90 -10 -14 -2 -61 -7 -105 -11 -44 -3 -87 -8 -95 -9 -8 -2
-53 -6 -100 -10 -47 -4 -93 -9 -102 -10 -9 -2 -48 -7 -85 -10 -37 -4 -79 -8
-93 -10 -14 -2 -57 -6 -95 -10 l-71 -6 -13 53 c-7 29 -17 67 -22 83 -6 17 -37
126 -69 244 -33 117 -61 216 -64 218 -3 3 -9 -8 -13 -23z"/>
<path d="M2657 164 c-2 -2 -94 -10 -212 -19 -33 -3 -78 -7 -100 -10 -22 -2
-78 -7 -125 -10 -47 -3 -96 -8 -110 -10 -14 -2 -63 -7 -110 -10 -228 -18 -179
-23 205 -21 448 1 442 0 535 63 l35 24 -58 -2 c-31 -1 -58 -3 -60 -5z"/>
</g>
</svg>
